# File created by Blade
# Date/Time:  Wed Jan 21 18:34:34 2015
#---------------------------------------------------------
:version 1.10
:name HOM
:units
  mass 1.0
  length 1.000000
  angle deg
:documentation
     Acclaim Skeleton File
:root
   axis xyz
   order TX TY TZ RX RY RZ
   position 0.000000 0.000000 0.000000
   orientation 0 0 0
:bonedata
   begin
      id 1
      name RightUpLeg_dum
      direction -1.000000 0.000000 0.000000
      length 3.693983
      axis 0.0 0.0 0.0 xyz
   end
   begin
      id 2
      name LeftUpLeg_dum
      direction 1.000000 0.000000 0.000000
      length 3.693983
      axis 0.0 0.0 0.0 xyz
   end
   begin
      id 3
      name Spine_dum
      direction 0.000000 1.000000 0.000000
      length 2.392956
      axis 0.0 0.0 0.0 xyz
   end
   begin
      id 4
      name RightUpLeg
      direction 0.000000 -1.000000 0.000000
      length 15.795667
      axis 0.0 0.0 0.0 xyz
      dof rx ry rz
   end
   begin
      id 5
      name RightLeg
      direction 0.000000 -1.000000 0.000000
      length 14.766989
      axis 0.0 0.0 0.0 xyz
      dof rx ry rz
   end
   begin
      id 6
      name RightFoot
      direction 0.000000 -0.258819 0.965926
      length 4.962790
      axis 15.0 0.0 0.0 xyz
      dof rx ry rz
   end
   begin
      id 7
      name RightToeBase
      direction 0.000000 0.000000 1.000000
      length 2.952750
      axis 0.0 0.0 0.0 xyz
      dof rx ry rz
   end
   begin
      id 8
      name LeftUpLeg
      direction 0.000000 -1.000000 0.000000
      length 15.795667
      axis 0.0 0.0 0.0 xyz
      dof rx ry rz
   end
   begin
      id 9
      name LeftLeg
      direction 0.000000 -1.000000 0.000000
      length 14.766989
      axis 0.0 0.0 0.0 xyz
      dof rx ry rz
   end
   begin
      id 10
      name LeftFoot
      direction 0.000000 -0.258819 0.965926
      length 4.962790
      axis 15.0 0.0 0.0 xyz
      dof rx ry rz
   end
   begin
      id 11
      name LeftToeBase
      direction 0.000000 0.000000 1.000000
      length 2.952750
      axis 0.0 0.0 0.0 xyz
      dof rx ry rz
   end
   begin
      id 12
      name Spine
      direction 0.000000 1.000000 0.000000
      length 0.000000
      axis 0.0 0.0 0.0 xyz
      dof rx ry rz
   end
   begin
      id 13
      name Spine_dum1
      direction 0.000000 1.000000 0.000000
      length 13.207411
      axis 0.0 0.0 0.0 xyz
   end
   begin
      id 14
      name Spine_dum2
      direction 0.000000 1.000000 0.000000
      length 13.207411
      axis 0.0 0.0 0.0 xyz
   end
   begin
      id 15
      name Spine_dum3
      direction 0.000000 1.000000 0.000000
      length 19.250100
      axis 0.0 0.0 0.0 xyz
   end
   begin
      id 16
      name RightShoulder
      direction -1.000000 0.000000 0.000000
      length 8.140465
      axis 0.0 0.0 90.0 xyz
      dof rx ry rz
   end
   begin
      id 17
      name RightArm
      direction -1.000000 0.000000 0.000000
      length 10.649840
      axis 0.0 0.0 90.0 xyz
      dof rx ry rz
   end
   begin
      id 18
      name RightForeArm
      direction -1.000000 0.000000 0.000000
      length 8.304624
      axis 0.0 0.0 90.0 xyz
      dof ry rz rx
   end
   begin
      id 19
      name RightHand
      direction -1.000000 0.000000 0.000000
      length 0.000000
      axis 0.0 0.0 90.0 xyz
      dof rx ry rz
   end
   begin
      id 20
      name RightHand_dum1
      direction -1.000000 0.000000 0.000000
      length 3.937000
      axis 0.0 0.0 90.0 xyz
   end
   begin
      id 21
      name RightHand_dum2
      direction 0.000000 0.000000 0.000000
      length 0.000000
      axis 0.0 0.0 90.0 xyz
   end
   begin
      id 22
      name RightHandThumb1
      direction 0.000000 0.000000 1.000000
      length 3.937000
      axis 0.0 0.0 90.0 xyz
      dof rx rz ry
   end
   begin
      id 23
      name LeftShoulder
      direction 1.000000 0.000000 0.000000
      length 8.140465
      axis 0.0 0.0 -90.0 xyz
      dof rx ry rz
   end
   begin
      id 24
      name LeftArm
      direction 1.000000 0.000000 0.000000
      length 10.649840
      axis 0.0 0.0 -90.0 xyz
      dof rx ry rz
   end
   begin
      id 25
      name LeftForeArm
      direction 1.000000 0.000000 0.000000
      length 8.304624
      axis 0.0 0.0 -90.0 xyz
      dof ry rz rx
   end
   begin
      id 26
      name LeftHand
      direction 1.000000 0.000000 0.000000
      length 0.000000
      axis 0.0 0.0 -90.0 xyz
      dof rx ry rz
   end
   begin
      id 27
      name LeftHand_dum1
      direction 1.000000 0.000000 0.000000
      length 3.937000
      axis 0.0 0.0 -90.0 xyz
   end
   begin
      id 28
      name LeftHand_dum2
      direction 0.000000 0.000000 0.000000
      length 0.000000
      axis 0.0 0.0 -90.0 xyz
   end
   begin
      id 29
      name LeftHandThumb1
      direction 0.000000 0.000000 1.000000
      length 3.937000
      axis 0.0 0.0 -90.0 xyz
      dof rx rz ry
   end
   begin
      id 30
      name Head
      direction 0.000000 1.000000 0.000000
      length 4.527550
      axis 0.0 0.0 0.0 xyz
      dof rx ry rz
   end
:hierarchy
   begin
      root RightUpLeg_dum LeftUpLeg_dum Spine_dum
      RightUpLeg_dum RightUpLeg
      LeftUpLeg_dum LeftUpLeg
      Spine_dum Spine
      RightUpLeg RightLeg
      RightLeg RightFoot
      RightFoot RightToeBase
      LeftUpLeg LeftLeg
      LeftLeg LeftFoot
      LeftFoot LeftToeBase
      Spine Spine_dum1 Spine_dum2 Spine_dum3
      Spine_dum1 RightShoulder
      Spine_dum2 LeftShoulder
      Spine_dum3 Head
      RightShoulder RightArm
      RightArm RightForeArm
      RightForeArm RightHand
      RightHand RightHand_dum1 RightHand_dum2
      RightHand_dum2 RightHandThumb1
      LeftShoulder LeftArm
      LeftArm LeftForeArm
      LeftForeArm LeftHand
      LeftHand LeftHand_dum1 LeftHand_dum2
      LeftHand_dum2 LeftHandThumb1
   end

# File created by Blade
# Date/Time:  Wed Jan 21 18:34:41 2015
# Frame Rate: 120.000 fps
#------------------------------------------------------
:FULLY-SPECIFIED
:DEGREES
1285
root 2.718644 32.772490 -6.633941 43.690370 3.167752 1.741601
RightUpLeg -37.350621 -18.865866 8.701754
RightLeg -4.260925 -0.000000 0.000000
RightFoot -7.675793 -0.710841 22.726810
RightToeBase 21.463348 -0.000000 -0.000000
LeftUpLeg -38.888268 11.027635 -4.591339
LeftLeg -0.277182 -0.000000 0.000000
LeftFoot -2.570269 -8.151303 -15.258426
LeftToeBase 3.306298 -0.000000 -0.000000
Spine -47.249635 0.204426 -3.497154
RightShoulder -25.157189 33.706336 -70.221403
RightArm 22.512875 -10.635597 15.215753
RightForeArm 5.734672 -0.000000 0.190681
RightHand 15.225254 -0.000000 -8.903268
RightHandThumb1 -24.326973 -0.000000 -32.862282
LeftShoulder -15.781257 -15.975316 55.084089
LeftArm 33.713804 -22.665545 -10.958831
LeftForeArm 23.377728 -0.000000 -0.982752
LeftHand -27.087725 -0.000000 9.070911
LeftHandThumb1 -26.253704 0.000000 33.147579
Head 2.662192 -4.180884 7.948410
1286
root 2.719707 32.774892 -6.638877 43.684108 3.142787 1.741890
RightUpLeg -37.354681 -18.858972 8.690437
RightLeg -4.265979 -0.000000 0.000000
RightFoot -7.642556 -0.706609 22.750845
RightToeBase 21.491765 -0.000000 -0.000000
LeftUpLeg -38.889167 11.044267 -4.612318
LeftLeg -0.278980 -0.000000 0.000000
LeftFoot -2.550873 -8.145024 -15.261500
LeftToeBase 3.320188 -0.000000 -0.000000
Spine -47.175112 0.211068 -3.470305
RightShoulder -24.905307 33.518214 -69.783793
RightArm 21.402088 -10.942028 15.825105
RightForeArm 5.724777 -0.000000 0.110926
RightHand 14.918408 -0.000000 -8.334658
RightHandThumb1 -24.326973 -0.000000 -32.862282
LeftShoulder -15.685625 -15.642724 54.780647
LeftArm 32.759959 -22.355034 -11.385840
LeftForeArm 23.360952 -0.000000 -1.159592
LeftHand -27.077733 -0.000000 8.692319
LeftHandThumb1 -26.253704 0.000000 33.147579
Head 2.546923 -4.133272 7.794325
1287
root 2.721039 32.776566 -6.643683 43.686472 3.113207 1.737727
RightUpLeg -37.372080 -18.855856 8.693880
RightLeg -4.269854 -0.000000 0.000000
RightFoot -7.605553 -0.693144 22.724834
RightToeBase 21.442966 -0.000000 -0.000000
LeftUpLeg -38.894154 11.070627 -4.637367
LeftLeg -0.290950 -0.000000 0.000000
LeftFoot -2.529809 -8.143867 -15.244035
LeftToeBase 3.311813 -0.000000 -0.000000
Spine -47.099477 0.231841 -3.450091
RightShoulder -24.648230 33.284566 -69.304187
RightArm 20.263897 -11.213208 16.428285
RightForeArm 5.748729 -0.000000 0.073678
RightHand 14.821434 -0.000000 -8.022020
RightHandThumb1 -24.326973 -0.000000 -32.862282
LeftShoulder -15.592069 -15.246463 54.410274
LeftArm 31.870959 -22.103396 -11.787775
LeftForeArm 23.196724 0.000000 -1.468296
LeftHand -26.949475 0.000000 8.319010
LeftHandThumb1 -26.253704 0.000000 33.147579
Head 2.408360 -4.131674 7.633088
1288
root 2.723134 32.778966 -6.648063 43.679961 3.078298 1.743518
RightUpLeg -37.377436 -18.861908 8.685293
RightLeg -4.284124 -0.000000 0.000000
RightFoot -7.572459 -0.675009 22.733738
RightToeBase 21.533697 -0.000000 -0.000000
LeftUpLeg -38.909385 11.134714 -4.712908
LeftLeg -0.278093 -0.000000 0.000000
LeftFoot -2.495683 -8.167901 -15.172223
LeftToeBase 3.255131 -0.000000 -0.000000
Spine -47.023960 0.259810 -3.453623
RightShoulder -24.397160 32.976558 -68.770778
RightArm 19.228288 -11.416225 17.040335
RightForeArm 5.754057 -0.000000 -0.046749
RightHand 14.528361 -0.000000 -7.392186
RightHandThumb1 -24.326973 -0.000000 -32.862282
LeftShoulder -15.546396 -15.169070 54.218058
LeftArm 30.939968 -21.750593 -12.513459
LeftForeArm 23.455971 0.000000 -1.644044
LeftHand -26.967938 0.000000 8.105045
LeftHandThumb1 -26.253704 0.000000 33.147579
Head 2.308834 -4.106753 7.479700
